<?xml version="1.0" encoding="UTF-8"?>
<svg id="Layer_1" data-name="Layer 1" xmlns="http://www.w3.org/2000/svg" viewBox="0 0 55.67 294.09">
  <defs>
    <style>
      .cls-1 {
        font-family: Roboto-Regular, Roboto;
        font-size: 76.03px;
        stroke: #823393;
        stroke-miterlimit: 10;
        stroke-width: 8px;
      }

      .cls-1, .cls-2 {
        fill: #823393;
      }
    </style>
  </defs>
  <text class="cls-1" transform="translate(4 69.04)"><tspan x="0" y="0">X</tspan></text>
  <text class="cls-1" transform="translate(5.08 269.49)"><tspan x="0" y="0">Z</tspan></text>
  <g>
    <path class="cls-2" d="M28.33,159.41c7.95,0,14.39-6.44,14.39-14.39v-3.08h-7.2c-.57,0-1.03-.46-1.03-1.03s.46-1.03,1.03-1.03h7.2v-4.11h-7.2c-.57,0-1.03-.46-1.03-1.03s.46-1.03,1.03-1.03h7.2v-4.11h-7.2c-.57,0-1.03-.46-1.03-1.03s.46-1.03,1.03-1.03h7.2v-3.08c0-7.95-6.44-14.39-14.39-14.39s-14.39,6.44-14.39,14.39v3.08h7.2c.57,0,1.03.46,1.03,1.03s-.46,1.03-1.03,1.03h-7.2v4.11h7.2c.57,0,1.03.46,1.03,1.03s-.46,1.03-1.03,1.03h-7.2v4.11h7.2c.57,0,1.03.46,1.03,1.03s-.46,1.03-1.03,1.03h-7.2v3.08c0,7.95,6.44,14.39,14.39,14.39Z"/>
    <path class="cls-2" d="M47.87,141.94c-1.7,0-3.08,1.38-3.08,3.08,0,9.08-7.36,16.45-16.45,16.45s-16.45-7.36-16.45-16.45c0-1.7-1.38-3.08-3.08-3.08s-3.08,1.38-3.08,3.08c0,10.72,7.46,19.69,17.48,22.02v4.7c0,2.27,1.84,4.11,4.11,4.11h2.06c2.27,0,4.11-1.84,4.11-4.11v-4.7c10.01-2.33,17.48-11.3,17.48-22.02,0-1.7-1.38-3.08-3.08-3.08ZM33.47,164.91c-.67.17-1.36.31-2.06.42v6.42c0,1.14-.92,2.06-2.06,2.06h-2.06c-1.14,0-2.06-.92-2.06-2.06v-6.42c-.7-.11-1.38-.24-2.06-.42-8.86-2.29-15.42-10.31-15.42-19.89,0-.57.46-1.03,1.03-1.03s1.03.46,1.03,1.03c0,10.22,8.29,18.5,18.51,18.5s18.5-8.29,18.51-18.5c0-.57.46-1.03,1.03-1.03s1.03.46,1.03,1.03c0,9.58-6.56,17.6-15.42,19.89Z"/>
  </g>
</svg>