<?xml version="1.0" encoding="UTF-8"?>
<svg id="Layer_1" data-name="Layer 1" xmlns="http://www.w3.org/2000/svg" viewBox="0 0 74.79 327.7">
  <defs>
    <style>
      .cls-1, .cls-2 {
        fill: #823393;
      }

      .cls-2 {
        font-family: Roboto-Regular, Roboto;
        font-size: 106.52px;
        stroke: #823393;
        stroke-miterlimit: 10;
        stroke-width: 8px;
      }
    </style>
  </defs>
  <text class="cls-2" transform="translate(4 95.13)"><tspan x="0" y="0">X</tspan></text>
  <text class="cls-2" transform="translate(5.01 294.84)"><tspan x="0" y="0">Z</tspan></text>
  <g>
    <path class="cls-1" d="M37.39,179.98c11.14,0,20.17-9.03,20.17-20.17v-4.32h-10.08c-.8,0-1.44-.64-1.44-1.44s.64-1.44,1.44-1.44h10.08v-5.76h-10.08c-.8,0-1.44-.64-1.44-1.44s.64-1.44,1.44-1.44h10.08v-5.76h-10.08c-.8,0-1.44-.64-1.44-1.44s.64-1.44,1.44-1.44h10.08v-4.32c0-11.14-9.03-20.17-20.17-20.17s-20.17,9.03-20.17,20.17v4.32h10.08c.8,0,1.44.64,1.44,1.44s-.64,1.44-1.44,1.44h-10.08v5.76h10.08c.8,0,1.44.64,1.44,1.44s-.64,1.44-1.44,1.44h-10.08v5.76h10.08c.8,0,1.44.64,1.44,1.44s-.64,1.44-1.44,1.44h-10.08v4.32c0,11.14,9.03,20.17,20.17,20.17Z"/>
    <path class="cls-1" d="M64.76,155.5c-2.39,0-4.32,1.93-4.32,4.32,0,12.73-10.32,23.05-23.05,23.05s-23.05-10.32-23.05-23.05c0-2.39-1.93-4.32-4.32-4.32s-4.32,1.93-4.32,4.32c0,15.02,10.46,27.59,24.49,30.86v6.59c0,3.18,2.58,5.76,5.76,5.76h2.88c3.18,0,5.76-2.58,5.76-5.76v-6.59c14.03-3.26,24.49-15.84,24.49-30.86,0-2.39-1.93-4.32-4.32-4.32ZM44.6,187.69c-.94.24-1.9.44-2.88.58v9c0,1.59-1.29,2.88-2.88,2.88h-2.88c-1.59,0-2.88-1.29-2.88-2.88v-9c-.98-.15-1.94-.34-2.88-.58-12.42-3.2-21.61-14.45-21.61-27.87,0-.8.64-1.44,1.44-1.44s1.44.64,1.44,1.44c0,14.32,11.61,25.93,25.93,25.93s25.93-11.61,25.93-25.93c0-.8.64-1.44,1.44-1.44s1.44.65,1.44,1.44c0,13.42-9.19,24.66-21.61,27.87Z"/>
  </g>
</svg>