<?xml version="1.0" encoding="utf-8"?><!-- Uploaded to: SVG Repo, www.svgrepo.com, Generator: SVG Repo Mixer Tools -->
<svg fill="#000000" width="800px" height="800px" viewBox="0 0 24 24" id="microphone-stand" data-name="Flat Color" xmlns="http://www.w3.org/2000/svg" class="icon flat-color"><path id="secondary" d="M14,22H10a1,1,0,0,1,0-2h1V13a1,1,0,0,1,2,0v7h1a1,1,0,0,1,0,2Z" style="fill: rgb(44, 169, 188);"></path><path id="primary" d="M20.22,4.2a5,5,0,0,0-6.94-1.34,4.93,4.93,0,0,0-2,3h0L3.71,11.58a2,2,0,0,0-.44,2.71L4.45,16a2,2,0,0,0,1.66.88,1.93,1.93,0,0,0,1-.28l8-4.75.19,0A5,5,0,0,0,21,8,4.93,4.93,0,0,0,20.22,4.2Z" style="fill: rgb(0, 0, 0);"></path><path id="secondary-2" data-name="secondary" d="M16,12.77a1,1,0,0,1-.83-.44L10.74,5.7A1,1,0,0,1,12.4,4.58l4.47,6.63a1,1,0,0,1-.27,1.39A1,1,0,0,1,16,12.77Z" style="fill:#84259F"></path></svg>
