<?xml version="1.0" encoding="utf-8"?>

<!DOCTYPE svg PUBLIC "-//W3C//DTD SVG 1.0//EN" "http://www.w3.org/TR/2001/REC-SVG-20010904/DTD/svg10.dtd">
<!-- Uploaded to: SVG Repo, www.svgrepo.com, Generator: SVG Repo Mixer Tools -->
<svg version="1.0" id="Layer_1" xmlns="http://www.w3.org/2000/svg" xmlns:xlink="http://www.w3.org/1999/xlink" 
	 width="800px" height="800px" viewBox="0 0 64 64" enable-background="new 0 0 64 64" xml:space="preserve">
<g>
	<path fill="#231F20" d="M32,48c7.732,0,14-6.268,14-14v-3h-7c-0.553,0-1-0.447-1-1s0.447-1,1-1h7v-4h-7c-0.553,0-1-0.447-1-1
		s0.447-1,1-1h7v-4h-7c-0.553,0-1-0.447-1-1s0.447-1,1-1h7v-3c0-7.732-6.268-14-14-14S18,6.268,18,14v3h7c0.553,0,1,0.447,1,1
		s-0.447,1-1,1h-7v4h7c0.553,0,1,0.447,1,1s-0.447,1-1,1h-7v4h7c0.553,0,1,0.447,1,1s-0.447,1-1,1h-7v3C18,41.732,24.268,48,32,48z"
		/>
	<path fill="#231F20" d="M51,31.002c-1.657,0-2.999,1.343-3,3C47.999,42.838,40.837,50,32,50s-15.999-7.162-16-15.998
		c0-1.657-1.343-3-3-3s-3,1.343-3,3c0,10.429,7.26,19.156,17,21.422V60c0,2.209,1.791,4,4,4h2c2.209,0,4-1.791,4-4v-4.576
		c9.74-2.266,17-10.993,17-21.422C53.999,32.345,52.657,31.002,51,31.002z M37,53.346c-0.654,0.168-1.321,0.304-2,0.406v1.247v0.794
		V60c0,1.104-0.896,2-2,2h-2c-1.104,0-2-0.896-2-2v-4.207v-0.794v-1.247c-0.679-0.103-1.346-0.238-2-0.406
		c-8.621-2.224-15-10.029-15-19.344c0-0.554,0.447-1,1-1s1,0.446,1,1C14.001,43.941,22.059,52,32,52s17.999-8.059,18-17.998
		c0.001-0.552,0.447-1,1-1s0.999,0.448,1,1C52,43.316,45.621,51.122,37,53.346z"/>
</g>
</svg>